<mxfile host="app.diagrams.net" modified="2021-03-22T14:58:29.507Z" agent="5.0 (Windows NT 10.0; Win64; x64) AppleWebKit/537.36 (KHTML, like Gecko) Chrome/88.0.4324.192 Safari/537.36 OPR/74.0.3911.218" etag="dhv_ErWEuLIUGkyKe144" version="14.4.9" type="github">
  <diagram id="qal2xUwV03HnHvQyyKJ_" name="Page-1">
    <mxGraphModel dx="1611" dy="679" grid="0" gridSize="10" guides="1" tooltips="1" connect="1" arrows="1" fold="1" page="0" pageScale="1" pageWidth="827" pageHeight="1169" background="#E5FAE4" math="0" shadow="0">
      <root>
        <mxCell id="0" />
        <mxCell id="1" parent="0" />
        <mxCell id="DYOanXtXaM0NkYIehZ69-20" value="ID_PRODOTTO" style="text;html=1;strokeColor=none;fillColor=none;align=center;verticalAlign=middle;whiteSpace=wrap;rounded=0;fontStyle=5" parent="1" vertex="1">
          <mxGeometry x="230" y="750" width="40" height="20" as="geometry" />
        </mxCell>
        <mxCell id="DYOanXtXaM0NkYIehZ69-23" value="PREZZO" style="text;html=1;strokeColor=none;fillColor=none;align=center;verticalAlign=middle;whiteSpace=wrap;rounded=0;" parent="1" vertex="1">
          <mxGeometry x="248" y="730" width="40" height="20" as="geometry" />
        </mxCell>
        <mxCell id="DYOanXtXaM0NkYIehZ69-41" value="QUANTITA&#39;" style="text;html=1;strokeColor=none;fillColor=none;align=center;verticalAlign=middle;whiteSpace=wrap;rounded=0;" parent="1" vertex="1">
          <mxGeometry x="592.5" y="679.8199999999999" width="40" height="20" as="geometry" />
        </mxCell>
        <mxCell id="DYOanXtXaM0NkYIehZ69-47" value="" style="ellipse;whiteSpace=wrap;html=1;fillColor=#000000;" parent="1" vertex="1">
          <mxGeometry x="295.5" y="755" width="10" height="10" as="geometry" />
        </mxCell>
        <mxCell id="DYOanXtXaM0NkYIehZ69-54" value="" style="endArrow=none;html=1;exitX=0.5;exitY=0;exitDx=0;exitDy=0;" parent="1" source="iE0uYkGe0EGQWXsVg_w--24" target="DYOanXtXaM0NkYIehZ69-55" edge="1">
          <mxGeometry width="50" height="50" relative="1" as="geometry">
            <mxPoint x="393" y="340" as="sourcePoint" />
            <mxPoint x="392.5" y="250" as="targetPoint" />
          </mxGeometry>
        </mxCell>
        <mxCell id="DYOanXtXaM0NkYIehZ69-55" value="" style="rounded=0;whiteSpace=wrap;html=1;fillColor=#f8cecc;strokeColor=#b85450;" parent="1" vertex="1">
          <mxGeometry x="332.5" y="220" width="120" height="60" as="geometry" />
        </mxCell>
        <mxCell id="DYOanXtXaM0NkYIehZ69-56" value="CLIENTE" style="text;html=1;strokeColor=none;fillColor=none;align=center;verticalAlign=middle;whiteSpace=wrap;rounded=0;fontStyle=1;fontSize=16;" parent="1" vertex="1">
          <mxGeometry x="372.5" y="240" width="40" height="20" as="geometry" />
        </mxCell>
        <mxCell id="DYOanXtXaM0NkYIehZ69-58" value="" style="endArrow=none;html=1;" parent="1" edge="1">
          <mxGeometry width="50" height="50" relative="1" as="geometry">
            <mxPoint x="532.5" y="390" as="sourcePoint" />
            <mxPoint x="532.5" y="390" as="targetPoint" />
          </mxGeometry>
        </mxCell>
        <mxCell id="DYOanXtXaM0NkYIehZ69-69" value="isREGISTRATO" style="text;html=1;strokeColor=none;fillColor=none;align=center;verticalAlign=middle;whiteSpace=wrap;rounded=0;" parent="1" vertex="1">
          <mxGeometry x="227.5" y="215" width="40" height="20" as="geometry" />
        </mxCell>
        <mxCell id="DYOanXtXaM0NkYIehZ69-74" value="" style="ellipse;whiteSpace=wrap;html=1;" parent="1" vertex="1">
          <mxGeometry x="297.5" y="220" width="10" height="10" as="geometry" />
        </mxCell>
        <mxCell id="DYOanXtXaM0NkYIehZ69-79" value="NOME" style="text;html=1;strokeColor=none;fillColor=none;align=center;verticalAlign=middle;whiteSpace=wrap;rounded=0;" parent="1" vertex="1">
          <mxGeometry x="253" y="240" width="40" height="20" as="geometry" />
        </mxCell>
        <mxCell id="DYOanXtXaM0NkYIehZ69-80" value="COGNOME" style="text;html=1;strokeColor=none;fillColor=none;align=center;verticalAlign=middle;whiteSpace=wrap;rounded=0;" parent="1" vertex="1">
          <mxGeometry x="307.5" y="170" width="40" height="20" as="geometry" />
        </mxCell>
        <mxCell id="DYOanXtXaM0NkYIehZ69-84" value="" style="ellipse;whiteSpace=wrap;html=1;" parent="1" vertex="1">
          <mxGeometry x="330" y="190" width="10" height="10" as="geometry" />
        </mxCell>
        <mxCell id="DYOanXtXaM0NkYIehZ69-87" value="USERNAME" style="text;html=1;strokeColor=none;fillColor=none;align=center;verticalAlign=middle;whiteSpace=wrap;rounded=0;" parent="1" vertex="1">
          <mxGeometry x="387" y="175" width="30" height="10" as="geometry" />
        </mxCell>
        <mxCell id="DYOanXtXaM0NkYIehZ69-88" value="PASSWORD" style="text;html=1;strokeColor=none;fillColor=none;align=center;verticalAlign=middle;whiteSpace=wrap;rounded=0;" parent="1" vertex="1">
          <mxGeometry x="460" y="170" width="40" height="20" as="geometry" />
        </mxCell>
        <mxCell id="DYOanXtXaM0NkYIehZ69-89" value="" style="ellipse;whiteSpace=wrap;html=1;" parent="1" vertex="1">
          <mxGeometry x="442.5" y="190" width="10" height="10" as="geometry" />
        </mxCell>
        <mxCell id="DYOanXtXaM0NkYIehZ69-90" value="" style="ellipse;whiteSpace=wrap;html=1;" parent="1" vertex="1">
          <mxGeometry x="392.5" y="190" width="10" height="10" as="geometry" />
        </mxCell>
        <mxCell id="DYOanXtXaM0NkYIehZ69-91" value="" style="endArrow=none;html=1;entryX=0.542;entryY=0.003;entryDx=0;entryDy=0;exitX=0.5;exitY=1;exitDx=0;exitDy=0;entryPerimeter=0;" parent="1" target="DYOanXtXaM0NkYIehZ69-55" edge="1">
          <mxGeometry width="50" height="50" relative="1" as="geometry">
            <mxPoint x="397.5" y="200" as="sourcePoint" />
            <mxPoint x="412.5" y="240" as="targetPoint" />
          </mxGeometry>
        </mxCell>
        <mxCell id="DYOanXtXaM0NkYIehZ69-92" value="" style="endArrow=none;html=1;entryX=0.957;entryY=0.004;entryDx=0;entryDy=0;entryPerimeter=0;exitX=0.5;exitY=1;exitDx=0;exitDy=0;" parent="1" source="DYOanXtXaM0NkYIehZ69-89" target="DYOanXtXaM0NkYIehZ69-55" edge="1">
          <mxGeometry width="50" height="50" relative="1" as="geometry">
            <mxPoint x="447" y="200" as="sourcePoint" />
            <mxPoint x="472.5" y="240" as="targetPoint" />
          </mxGeometry>
        </mxCell>
        <mxCell id="auYpaX9DGSH37GbMPXTJ-10" value="" style="ellipse;whiteSpace=wrap;html=1;" parent="1" vertex="1">
          <mxGeometry x="477" y="220" width="10" height="10" as="geometry" />
        </mxCell>
        <mxCell id="qDq7OfXvAPDq6SGb6ejI-13" style="edgeStyle=orthogonalEdgeStyle;rounded=0;orthogonalLoop=1;jettySize=auto;html=1;exitX=0;exitY=0.5;exitDx=0;exitDy=0;" edge="1" parent="1">
          <mxGeometry relative="1" as="geometry">
            <mxPoint x="476.72413793103465" y="249.9310344827586" as="targetPoint" />
            <mxPoint x="477.00000000001796" y="250" as="sourcePoint" />
          </mxGeometry>
        </mxCell>
        <mxCell id="auYpaX9DGSH37GbMPXTJ-13" value="INDIRIZZO" style="text;html=1;strokeColor=none;fillColor=none;align=center;verticalAlign=middle;whiteSpace=wrap;rounded=0;" parent="1" vertex="1">
          <mxGeometry x="505" y="215" width="40" height="20" as="geometry" />
        </mxCell>
        <mxCell id="auYpaX9DGSH37GbMPXTJ-15" value="" style="endArrow=none;html=1;exitX=1;exitY=0.5;exitDx=0;exitDy=0;" parent="1" edge="1">
          <mxGeometry width="50" height="50" relative="1" as="geometry">
            <mxPoint x="452.5" y="275" as="sourcePoint" />
            <mxPoint x="480" y="275" as="targetPoint" />
            <Array as="points">
              <mxPoint x="462.5" y="275" />
              <mxPoint x="474.5" y="274.86" />
            </Array>
          </mxGeometry>
        </mxCell>
        <mxCell id="auYpaX9DGSH37GbMPXTJ-16" value="" style="ellipse;whiteSpace=wrap;html=1;fillColor=#000000;" parent="1" vertex="1">
          <mxGeometry x="477" y="270" width="10" height="10" as="geometry" />
        </mxCell>
        <mxCell id="auYpaX9DGSH37GbMPXTJ-17" value="ID_CLIENTE" style="text;html=1;strokeColor=none;fillColor=none;align=center;verticalAlign=middle;whiteSpace=wrap;rounded=0;fontStyle=1" parent="1" vertex="1">
          <mxGeometry x="505" y="265" width="40" height="20" as="geometry" />
        </mxCell>
        <mxCell id="auYpaX9DGSH37GbMPXTJ-25" value="EMAIL" style="text;html=1;strokeColor=none;fillColor=none;align=center;verticalAlign=middle;whiteSpace=wrap;rounded=0;" parent="1" vertex="1">
          <mxGeometry x="253" y="265" width="40" height="20" as="geometry" />
        </mxCell>
        <mxCell id="auYpaX9DGSH37GbMPXTJ-30" value="QUANTITA&#39;" style="text;html=1;strokeColor=none;fillColor=none;align=center;verticalAlign=middle;whiteSpace=wrap;rounded=0;" parent="1" vertex="1">
          <mxGeometry x="495" y="597.5" width="40" height="20" as="geometry" />
        </mxCell>
        <mxCell id="auYpaX9DGSH37GbMPXTJ-42" value="DESCRIZIONE&lt;br&gt;&amp;nbsp;BREVE" style="text;html=1;strokeColor=none;fillColor=none;align=center;verticalAlign=middle;whiteSpace=wrap;rounded=0;" parent="1" vertex="1">
          <mxGeometry x="312" y="810" width="40" height="20" as="geometry" />
        </mxCell>
        <mxCell id="auYpaX9DGSH37GbMPXTJ-47" value="NOME" style="text;html=1;strokeColor=none;fillColor=none;align=center;verticalAlign=middle;whiteSpace=wrap;rounded=0;" parent="1" vertex="1">
          <mxGeometry x="248" y="710" width="40" height="20" as="geometry" />
        </mxCell>
        <mxCell id="auYpaX9DGSH37GbMPXTJ-56" value="ID_CATEGORIA" style="text;html=1;strokeColor=none;fillColor=none;align=center;verticalAlign=middle;whiteSpace=wrap;rounded=0;fontStyle=5" parent="1" vertex="1">
          <mxGeometry x="227.5" y="1010" width="40" height="10" as="geometry" />
        </mxCell>
        <mxCell id="auYpaX9DGSH37GbMPXTJ-58" value="DESCRIZIONE" style="text;html=1;strokeColor=none;fillColor=none;align=center;verticalAlign=middle;whiteSpace=wrap;rounded=0;" parent="1" vertex="1">
          <mxGeometry x="227.5" y="985" width="40" height="10" as="geometry" />
        </mxCell>
        <mxCell id="auYpaX9DGSH37GbMPXTJ-62" value="NOME" style="text;html=1;strokeColor=none;fillColor=none;align=center;verticalAlign=middle;whiteSpace=wrap;rounded=0;" parent="1" vertex="1">
          <mxGeometry x="250" y="955" width="40" height="20" as="geometry" />
        </mxCell>
        <mxCell id="auYpaX9DGSH37GbMPXTJ-69" value="" style="endArrow=none;html=1;entryX=1;entryY=0.5;entryDx=0;entryDy=0;exitX=0;exitY=0.5;exitDx=0;exitDy=0;" parent="1" source="iE0uYkGe0EGQWXsVg_w--71" target="iE0uYkGe0EGQWXsVg_w--3" edge="1">
          <mxGeometry width="50" height="50" relative="1" as="geometry">
            <mxPoint x="495" y="490" as="sourcePoint" />
            <mxPoint x="450" y="490" as="targetPoint" />
          </mxGeometry>
        </mxCell>
        <mxCell id="auYpaX9DGSH37GbMPXTJ-77" value="INTESTATARIO&lt;br&gt;" style="text;html=1;align=center;verticalAlign=middle;whiteSpace=wrap;rounded=0;fontStyle=0" parent="1" vertex="1">
          <mxGeometry x="868.5" y="486" width="40" height="20" as="geometry" />
        </mxCell>
        <mxCell id="auYpaX9DGSH37GbMPXTJ-86" value="NUMERO" style="text;html=1;strokeColor=none;fillColor=none;align=center;verticalAlign=middle;whiteSpace=wrap;rounded=0;" parent="1" vertex="1">
          <mxGeometry x="735" y="550" width="40" height="15" as="geometry" />
        </mxCell>
        <mxCell id="auYpaX9DGSH37GbMPXTJ-87" value="CVV" style="text;html=1;strokeColor=none;fillColor=none;align=center;verticalAlign=middle;whiteSpace=wrap;rounded=0;" parent="1" vertex="1">
          <mxGeometry x="675" y="550" width="40" height="15" as="geometry" />
        </mxCell>
        <mxCell id="auYpaX9DGSH37GbMPXTJ-89" value="ID_ORDINE" style="text;html=1;strokeColor=none;fillColor=none;align=center;verticalAlign=middle;whiteSpace=wrap;rounded=0;fontStyle=5" parent="1" vertex="1">
          <mxGeometry x="420" y="410" width="40" height="20" as="geometry" />
        </mxCell>
        <mxCell id="auYpaX9DGSH37GbMPXTJ-90" value="" style="ellipse;whiteSpace=wrap;html=1;fillColor=#000000;" parent="1" vertex="1">
          <mxGeometry x="429" y="430" width="10" height="10" as="geometry" />
        </mxCell>
        <mxCell id="auYpaX9DGSH37GbMPXTJ-91" value="" style="endArrow=none;html=1;" parent="1" edge="1">
          <mxGeometry width="50" height="50" relative="1" as="geometry">
            <mxPoint x="433.30999999999995" y="460" as="sourcePoint" />
            <mxPoint x="434" y="440" as="targetPoint" />
          </mxGeometry>
        </mxCell>
        <mxCell id="auYpaX9DGSH37GbMPXTJ-93" value="" style="ellipse;whiteSpace=wrap;html=1;" parent="1" vertex="1">
          <mxGeometry x="429" y="540" width="10" height="10" as="geometry" />
        </mxCell>
        <mxCell id="auYpaX9DGSH37GbMPXTJ-94" value="DATA INSERIMENTO&lt;br&gt;" style="text;html=1;strokeColor=none;fillColor=none;align=center;verticalAlign=middle;whiteSpace=wrap;rounded=0;" parent="1" vertex="1">
          <mxGeometry x="442.5" y="540" width="40" height="20" as="geometry" />
        </mxCell>
        <mxCell id="auYpaX9DGSH37GbMPXTJ-100" value="ID_SPEDIZIONE" style="text;html=1;strokeColor=none;fillColor=none;align=center;verticalAlign=middle;whiteSpace=wrap;rounded=0;fontStyle=5" parent="1" vertex="1">
          <mxGeometry x="37.5" y="415" width="40" height="10" as="geometry" />
        </mxCell>
        <mxCell id="auYpaX9DGSH37GbMPXTJ-107" value="STATUS ORDINE" style="text;html=1;strokeColor=none;fillColor=none;align=center;verticalAlign=middle;whiteSpace=wrap;rounded=0;" parent="1" vertex="1">
          <mxGeometry x="9" y="557.5" width="40" height="10" as="geometry" />
        </mxCell>
        <mxCell id="auYpaX9DGSH37GbMPXTJ-115" value="SPESE" style="text;html=1;strokeColor=none;fillColor=none;align=center;verticalAlign=middle;whiteSpace=wrap;rounded=0;" parent="1" vertex="1">
          <mxGeometry x="61.5" y="550" width="40" height="20" as="geometry" />
        </mxCell>
        <mxCell id="auYpaX9DGSH37GbMPXTJ-118" value="DATA SCADENZA" style="text;html=1;strokeColor=none;fillColor=none;align=center;verticalAlign=middle;whiteSpace=wrap;rounded=0;" parent="1" vertex="1">
          <mxGeometry x="807.5" y="547.5" width="40" height="20" as="geometry" />
        </mxCell>
        <mxCell id="auYpaX9DGSH37GbMPXTJ-123" value="IMG_FULL" style="text;html=1;strokeColor=none;fillColor=none;align=center;verticalAlign=middle;whiteSpace=wrap;rounded=0;" parent="1" vertex="1">
          <mxGeometry x="394" y="659.82" width="60" height="20" as="geometry" />
        </mxCell>
        <mxCell id="auYpaX9DGSH37GbMPXTJ-124" value="IMG_ANTEPRIMA" style="text;html=1;strokeColor=none;fillColor=none;align=center;verticalAlign=middle;whiteSpace=wrap;rounded=0;" parent="1" vertex="1">
          <mxGeometry x="474.5" y="674.82" width="60" height="20" as="geometry" />
        </mxCell>
        <mxCell id="auYpaX9DGSH37GbMPXTJ-135" value="(0,N)" style="text;html=1;strokeColor=none;fillColor=none;align=center;verticalAlign=middle;whiteSpace=wrap;rounded=0;" parent="1" vertex="1">
          <mxGeometry x="347" y="320" width="40" height="20" as="geometry" />
        </mxCell>
        <mxCell id="auYpaX9DGSH37GbMPXTJ-136" value="(1,1)" style="text;html=1;strokeColor=none;fillColor=none;align=center;verticalAlign=middle;whiteSpace=wrap;rounded=0;" parent="1" vertex="1">
          <mxGeometry x="265.5" y="460" width="40" height="20" as="geometry" />
        </mxCell>
        <mxCell id="auYpaX9DGSH37GbMPXTJ-137" value="(1,1)" style="text;html=1;strokeColor=none;fillColor=none;align=center;verticalAlign=middle;whiteSpace=wrap;rounded=0;" parent="1" vertex="1">
          <mxGeometry x="120" y="460" width="40" height="20" as="geometry" />
        </mxCell>
        <mxCell id="auYpaX9DGSH37GbMPXTJ-138" value="(0,1)" style="text;html=1;strokeColor=none;fillColor=none;align=center;verticalAlign=middle;whiteSpace=wrap;rounded=0;" parent="1" vertex="1">
          <mxGeometry x="350" y="400" width="40" height="20" as="geometry" />
        </mxCell>
        <mxCell id="auYpaX9DGSH37GbMPXTJ-140" value="(1,1)" style="text;html=1;strokeColor=none;fillColor=none;align=center;verticalAlign=middle;whiteSpace=wrap;rounded=0;" parent="1" vertex="1">
          <mxGeometry x="475" y="460" width="40" height="20" as="geometry" />
        </mxCell>
        <mxCell id="auYpaX9DGSH37GbMPXTJ-141" value="(1,1)" style="text;html=1;strokeColor=none;fillColor=none;align=center;verticalAlign=middle;whiteSpace=wrap;rounded=0;" parent="1" vertex="1">
          <mxGeometry x="612.5" y="460" width="40" height="20" as="geometry" />
        </mxCell>
        <mxCell id="auYpaX9DGSH37GbMPXTJ-142" value="(1,N)" style="text;html=1;strokeColor=none;fillColor=none;align=center;verticalAlign=middle;whiteSpace=wrap;rounded=0;" parent="1" vertex="1">
          <mxGeometry x="347.5" y="570" width="40" height="20" as="geometry" />
        </mxCell>
        <mxCell id="auYpaX9DGSH37GbMPXTJ-143" value="(0,N)" style="text;html=1;strokeColor=none;fillColor=none;align=center;verticalAlign=middle;whiteSpace=wrap;rounded=0;" parent="1" vertex="1">
          <mxGeometry x="352" y="645" width="40" height="20" as="geometry" />
        </mxCell>
        <mxCell id="auYpaX9DGSH37GbMPXTJ-144" value="(0,N)" style="text;html=1;strokeColor=none;fillColor=none;align=center;verticalAlign=middle;whiteSpace=wrap;rounded=0;" parent="1" vertex="1">
          <mxGeometry x="474.5" y="715" width="40" height="20" as="geometry" />
        </mxCell>
        <mxCell id="auYpaX9DGSH37GbMPXTJ-145" value="(0,N)" style="text;html=1;strokeColor=none;fillColor=none;align=center;verticalAlign=middle;whiteSpace=wrap;rounded=0;" parent="1" vertex="1">
          <mxGeometry x="617.5" y="715" width="40" height="20" as="geometry" />
        </mxCell>
        <mxCell id="auYpaX9DGSH37GbMPXTJ-146" value="(1,1)" style="text;html=1;strokeColor=none;fillColor=none;align=center;verticalAlign=middle;whiteSpace=wrap;rounded=0;" parent="1" vertex="1">
          <mxGeometry x="354" y="820" width="40" height="20" as="geometry" />
        </mxCell>
        <mxCell id="auYpaX9DGSH37GbMPXTJ-148" value="(0,N)" style="text;html=1;strokeColor=none;fillColor=none;align=center;verticalAlign=middle;whiteSpace=wrap;rounded=0;" parent="1" vertex="1">
          <mxGeometry x="354" y="895" width="40" height="20" as="geometry" />
        </mxCell>
        <mxCell id="iE0uYkGe0EGQWXsVg_w--3" value="" style="rounded=0;whiteSpace=wrap;html=1;fillColor=#f8cecc;strokeColor=#b85450;" parent="1" vertex="1">
          <mxGeometry x="332.5" y="460" width="120" height="60" as="geometry" />
        </mxCell>
        <mxCell id="iE0uYkGe0EGQWXsVg_w--4" value="" style="endArrow=none;html=1;exitX=0.5;exitY=0;exitDx=0;exitDy=0;" parent="1" source="iE0uYkGe0EGQWXsVg_w--3" edge="1">
          <mxGeometry width="50" height="50" relative="1" as="geometry">
            <mxPoint x="392.83" y="460" as="sourcePoint" />
            <mxPoint x="392.4966666666667" y="400" as="targetPoint" />
          </mxGeometry>
        </mxCell>
        <mxCell id="iE0uYkGe0EGQWXsVg_w--5" value="ORDINE" style="text;html=1;strokeColor=none;fillColor=none;align=center;verticalAlign=middle;whiteSpace=wrap;rounded=0;fontStyle=1;fontSize=16;" parent="1" vertex="1">
          <mxGeometry x="372.5" y="467.5" width="40" height="45" as="geometry" />
        </mxCell>
        <mxCell id="iE0uYkGe0EGQWXsVg_w--10" value="" style="endArrow=none;html=1;entryX=0.536;entryY=-0.016;entryDx=0;entryDy=0;entryPerimeter=0;exitX=0.5;exitY=1;exitDx=0;exitDy=0;" parent="1" source="DYOanXtXaM0NkYIehZ69-84" edge="1">
          <mxGeometry width="50" height="50" relative="1" as="geometry">
            <mxPoint x="335" y="201" as="sourcePoint" />
            <mxPoint x="335.00000000000006" y="219.99999999999997" as="targetPoint" />
          </mxGeometry>
        </mxCell>
        <mxCell id="iE0uYkGe0EGQWXsVg_w--17" value="" style="endArrow=none;html=1;entryX=0;entryY=0.5;entryDx=0;entryDy=0;" parent="1" edge="1">
          <mxGeometry width="50" height="50" relative="1" as="geometry">
            <mxPoint x="452.5" y="225.10000000000002" as="sourcePoint" />
            <mxPoint x="477.00000000000443" y="225" as="targetPoint" />
            <Array as="points">
              <mxPoint x="464.5" y="225.1" />
              <mxPoint x="474.5" y="224.9" />
            </Array>
          </mxGeometry>
        </mxCell>
        <mxCell id="iE0uYkGe0EGQWXsVg_w--18" value="" style="endArrow=none;html=1;entryX=0;entryY=0.5;entryDx=0;entryDy=0;" parent="1" edge="1">
          <mxGeometry width="50" height="50" relative="1" as="geometry">
            <mxPoint x="307.5" y="225.10000000000002" as="sourcePoint" />
            <mxPoint x="332.00000000000443" y="225" as="targetPoint" />
            <Array as="points">
              <mxPoint x="319.5" y="225.1" />
              <mxPoint x="329.5" y="224.9" />
            </Array>
          </mxGeometry>
        </mxCell>
        <mxCell id="iE0uYkGe0EGQWXsVg_w--19" value="" style="ellipse;whiteSpace=wrap;html=1;" parent="1" vertex="1">
          <mxGeometry x="297.5" y="245" width="10" height="10" as="geometry" />
        </mxCell>
        <mxCell id="iE0uYkGe0EGQWXsVg_w--20" value="" style="endArrow=none;html=1;entryX=0;entryY=0.5;entryDx=0;entryDy=0;" parent="1" edge="1">
          <mxGeometry width="50" height="50" relative="1" as="geometry">
            <mxPoint x="307.5" y="250.10000000000002" as="sourcePoint" />
            <mxPoint x="332.00000000000443" y="250" as="targetPoint" />
            <Array as="points">
              <mxPoint x="319.5" y="250.1" />
              <mxPoint x="329.5" y="249.9" />
            </Array>
          </mxGeometry>
        </mxCell>
        <mxCell id="iE0uYkGe0EGQWXsVg_w--21" value="" style="ellipse;whiteSpace=wrap;html=1;" parent="1" vertex="1">
          <mxGeometry x="298" y="270" width="10" height="10" as="geometry" />
        </mxCell>
        <mxCell id="iE0uYkGe0EGQWXsVg_w--22" value="" style="endArrow=none;html=1;entryX=0;entryY=0.5;entryDx=0;entryDy=0;" parent="1" edge="1">
          <mxGeometry width="50" height="50" relative="1" as="geometry">
            <mxPoint x="308" y="275.1" as="sourcePoint" />
            <mxPoint x="332.50000000000443" y="275" as="targetPoint" />
            <Array as="points">
              <mxPoint x="320" y="275.1" />
              <mxPoint x="330" y="274.9" />
            </Array>
          </mxGeometry>
        </mxCell>
        <mxCell id="iE0uYkGe0EGQWXsVg_w--24" value="" style="rhombus;whiteSpace=wrap;html=1;fillColor=#fff2cc;strokeColor=#d6b656;" parent="1" vertex="1">
          <mxGeometry x="322.5" y="340" width="140" height="60" as="geometry" />
        </mxCell>
        <mxCell id="iE0uYkGe0EGQWXsVg_w--25" value="ACQUISTO" style="text;html=1;strokeColor=none;fillColor=none;align=center;verticalAlign=middle;whiteSpace=wrap;rounded=0;fontStyle=2" parent="1" vertex="1">
          <mxGeometry x="375" y="360" width="40" height="20" as="geometry" />
        </mxCell>
        <mxCell id="iE0uYkGe0EGQWXsVg_w--26" value="" style="endArrow=none;html=1;exitX=0.5;exitY=0;exitDx=0;exitDy=0;" parent="1" source="iE0uYkGe0EGQWXsVg_w--28" edge="1">
          <mxGeometry width="50" height="50" relative="1" as="geometry">
            <mxPoint x="392.27" y="580" as="sourcePoint" />
            <mxPoint x="392.26666666666665" y="520" as="targetPoint" />
          </mxGeometry>
        </mxCell>
        <mxCell id="iE0uYkGe0EGQWXsVg_w--28" value="COMPOSIZIONE" style="rhombus;whiteSpace=wrap;html=1;fillColor=#fff2cc;strokeColor=#d6b656;fontStyle=2" parent="1" vertex="1">
          <mxGeometry x="322.5" y="585" width="140" height="60" as="geometry" />
        </mxCell>
        <mxCell id="iE0uYkGe0EGQWXsVg_w--29" value="" style="endArrow=none;html=1;exitX=1;exitY=0.5;exitDx=0;exitDy=0;" parent="1" edge="1">
          <mxGeometry width="50" height="50" relative="1" as="geometry">
            <mxPoint x="445" y="607.5" as="sourcePoint" />
            <mxPoint x="472.5" y="607.5" as="targetPoint" />
            <Array as="points">
              <mxPoint x="467" y="607.36" />
            </Array>
          </mxGeometry>
        </mxCell>
        <mxCell id="iE0uYkGe0EGQWXsVg_w--30" value="" style="ellipse;whiteSpace=wrap;html=1;" parent="1" vertex="1">
          <mxGeometry x="469.5" y="602.5" width="10" height="10" as="geometry" />
        </mxCell>
        <mxCell id="iE0uYkGe0EGQWXsVg_w--32" value="" style="endArrow=none;html=1;exitX=0.5;exitY=0;exitDx=0;exitDy=0;" parent="1" edge="1">
          <mxGeometry width="50" height="50" relative="1" as="geometry">
            <mxPoint x="392.73" y="710" as="sourcePoint" />
            <mxPoint x="392.49666666666667" y="644.9999999999999" as="targetPoint" />
          </mxGeometry>
        </mxCell>
        <mxCell id="iE0uYkGe0EGQWXsVg_w--33" value="" style="endArrow=none;html=1;entryX=0.957;entryY=0.004;entryDx=0;entryDy=0;entryPerimeter=0;exitX=0.5;exitY=1;exitDx=0;exitDy=0;" parent="1" edge="1">
          <mxGeometry width="50" height="50" relative="1" as="geometry">
            <mxPoint x="433.99" y="520" as="sourcePoint" />
            <mxPoint x="433.8299999999999" y="540.24" as="targetPoint" />
          </mxGeometry>
        </mxCell>
        <mxCell id="iE0uYkGe0EGQWXsVg_w--35" value="" style="ellipse;whiteSpace=wrap;html=1;" parent="1" vertex="1">
          <mxGeometry x="409.5" y="679.82" width="10" height="10" as="geometry" />
        </mxCell>
        <mxCell id="iE0uYkGe0EGQWXsVg_w--36" value="" style="endArrow=none;html=1;entryX=0.542;entryY=0.003;entryDx=0;entryDy=0;exitX=0.5;exitY=1;exitDx=0;exitDy=0;entryPerimeter=0;" parent="1" edge="1">
          <mxGeometry width="50" height="50" relative="1" as="geometry">
            <mxPoint x="414.5" y="689.82" as="sourcePoint" />
            <mxPoint x="414.53999999999996" y="710.0000000000001" as="targetPoint" />
          </mxGeometry>
        </mxCell>
        <mxCell id="iE0uYkGe0EGQWXsVg_w--37" value="" style="ellipse;whiteSpace=wrap;html=1;" parent="1" vertex="1">
          <mxGeometry x="444" y="679.82" width="10" height="10" as="geometry" />
        </mxCell>
        <mxCell id="iE0uYkGe0EGQWXsVg_w--38" value="" style="endArrow=none;html=1;entryX=0.542;entryY=0.003;entryDx=0;entryDy=0;exitX=0.5;exitY=1;exitDx=0;exitDy=0;entryPerimeter=0;" parent="1" edge="1">
          <mxGeometry width="50" height="50" relative="1" as="geometry">
            <mxPoint x="449" y="689.82" as="sourcePoint" />
            <mxPoint x="449.03999999999996" y="710" as="targetPoint" />
          </mxGeometry>
        </mxCell>
        <mxCell id="iE0uYkGe0EGQWXsVg_w--41" value="" style="rounded=0;whiteSpace=wrap;html=1;fillColor=#f8cecc;strokeColor=#b85450;" parent="1" vertex="1">
          <mxGeometry x="330" y="710" width="120" height="60" as="geometry" />
        </mxCell>
        <mxCell id="iE0uYkGe0EGQWXsVg_w--42" value="PRODOTTO" style="text;html=1;strokeColor=none;fillColor=none;align=center;verticalAlign=middle;whiteSpace=wrap;rounded=0;fontStyle=1;fontSize=16;" parent="1" vertex="1">
          <mxGeometry x="337.5" y="730" width="110" height="20" as="geometry" />
        </mxCell>
        <mxCell id="iE0uYkGe0EGQWXsVg_w--43" value="" style="ellipse;whiteSpace=wrap;html=1;" parent="1" vertex="1">
          <mxGeometry x="332.5" y="679.82" width="10" height="10" as="geometry" />
        </mxCell>
        <mxCell id="iE0uYkGe0EGQWXsVg_w--44" value="" style="endArrow=none;html=1;entryX=0.542;entryY=0.003;entryDx=0;entryDy=0;exitX=0.5;exitY=1;exitDx=0;exitDy=0;entryPerimeter=0;" parent="1" edge="1">
          <mxGeometry width="50" height="50" relative="1" as="geometry">
            <mxPoint x="337.5" y="689.8200000000002" as="sourcePoint" />
            <mxPoint x="337.5400000000001" y="710" as="targetPoint" />
          </mxGeometry>
        </mxCell>
        <mxCell id="iE0uYkGe0EGQWXsVg_w--45" value="inOFFERTA" style="text;html=1;strokeColor=none;fillColor=none;align=center;verticalAlign=middle;whiteSpace=wrap;rounded=0;" parent="1" vertex="1">
          <mxGeometry x="290" y="659.82" width="60" height="20" as="geometry" />
        </mxCell>
        <mxCell id="iE0uYkGe0EGQWXsVg_w--46" value="" style="ellipse;whiteSpace=wrap;html=1;" parent="1" vertex="1">
          <mxGeometry x="295.5" y="715" width="10" height="10" as="geometry" />
        </mxCell>
        <mxCell id="iE0uYkGe0EGQWXsVg_w--47" value="" style="endArrow=none;html=1;entryX=0;entryY=0.5;entryDx=0;entryDy=0;" parent="1" edge="1">
          <mxGeometry width="50" height="50" relative="1" as="geometry">
            <mxPoint x="305.5" y="720.1" as="sourcePoint" />
            <mxPoint x="330.00000000000443" y="720" as="targetPoint" />
            <Array as="points">
              <mxPoint x="317.5" y="720.1" />
              <mxPoint x="327.5" y="719.9" />
            </Array>
          </mxGeometry>
        </mxCell>
        <mxCell id="iE0uYkGe0EGQWXsVg_w--50" value="" style="ellipse;whiteSpace=wrap;html=1;" parent="1" vertex="1">
          <mxGeometry x="295.5" y="735" width="10" height="10" as="geometry" />
        </mxCell>
        <mxCell id="iE0uYkGe0EGQWXsVg_w--51" value="" style="endArrow=none;html=1;entryX=0;entryY=0.5;entryDx=0;entryDy=0;" parent="1" edge="1">
          <mxGeometry width="50" height="50" relative="1" as="geometry">
            <mxPoint x="305.4999999999999" y="740.0999999999999" as="sourcePoint" />
            <mxPoint x="330.00000000000443" y="740" as="targetPoint" />
            <Array as="points">
              <mxPoint x="317.5" y="740.1" />
              <mxPoint x="327.5" y="739.9" />
            </Array>
          </mxGeometry>
        </mxCell>
        <mxCell id="iE0uYkGe0EGQWXsVg_w--52" value="" style="endArrow=none;html=1;entryX=0;entryY=0.5;entryDx=0;entryDy=0;" parent="1" edge="1">
          <mxGeometry width="50" height="50" relative="1" as="geometry">
            <mxPoint x="305.4999999999999" y="759.9999999999999" as="sourcePoint" />
            <mxPoint x="330.00000000000443" y="759.9" as="targetPoint" />
            <Array as="points">
              <mxPoint x="317.5" y="760" />
              <mxPoint x="327.5" y="759.8" />
            </Array>
          </mxGeometry>
        </mxCell>
        <mxCell id="iE0uYkGe0EGQWXsVg_w--53" value="" style="endArrow=none;html=1;entryX=0.542;entryY=0.003;entryDx=0;entryDy=0;exitX=0.5;exitY=1;exitDx=0;exitDy=0;entryPerimeter=0;" parent="1" edge="1">
          <mxGeometry width="50" height="50" relative="1" as="geometry">
            <mxPoint x="337.4" y="770.0000000000002" as="sourcePoint" />
            <mxPoint x="337.43999999999994" y="790.1800000000001" as="targetPoint" />
          </mxGeometry>
        </mxCell>
        <mxCell id="iE0uYkGe0EGQWXsVg_w--54" value="" style="ellipse;whiteSpace=wrap;html=1;" parent="1" vertex="1">
          <mxGeometry x="332.5" y="790" width="10" height="10" as="geometry" />
        </mxCell>
        <mxCell id="iE0uYkGe0EGQWXsVg_w--55" value="" style="endArrow=none;html=1;exitX=0.5;exitY=0;exitDx=0;exitDy=0;" parent="1" edge="1">
          <mxGeometry width="50" height="50" relative="1" as="geometry">
            <mxPoint x="391.40000000000003" y="835" as="sourcePoint" />
            <mxPoint x="391.1666666666667" y="770" as="targetPoint" />
          </mxGeometry>
        </mxCell>
        <mxCell id="iE0uYkGe0EGQWXsVg_w--57" value="APPARTENENZA" style="rhombus;whiteSpace=wrap;html=1;fillColor=#fff2cc;strokeColor=#d6b656;fontStyle=2" parent="1" vertex="1">
          <mxGeometry x="322.5" y="835" width="140" height="60" as="geometry" />
        </mxCell>
        <mxCell id="iE0uYkGe0EGQWXsVg_w--58" value="" style="endArrow=none;html=1;exitX=0.5;exitY=0;exitDx=0;exitDy=0;" parent="1" edge="1">
          <mxGeometry width="50" height="50" relative="1" as="geometry">
            <mxPoint x="392.2300000000001" y="960" as="sourcePoint" />
            <mxPoint x="391.9966666666667" y="895" as="targetPoint" />
          </mxGeometry>
        </mxCell>
        <mxCell id="iE0uYkGe0EGQWXsVg_w--59" value="CATEGORIA" style="rounded=0;whiteSpace=wrap;html=1;fillColor=#f8cecc;strokeColor=#b85450;fontStyle=1;fontSize=16;" parent="1" vertex="1">
          <mxGeometry x="332.5" y="960" width="120" height="60" as="geometry" />
        </mxCell>
        <mxCell id="iE0uYkGe0EGQWXsVg_w--61" value="DESCRIZIONE&lt;br&gt;&amp;nbsp;DETTAGLIATA" style="text;html=1;strokeColor=none;fillColor=none;align=center;verticalAlign=middle;whiteSpace=wrap;rounded=0;" parent="1" vertex="1">
          <mxGeometry x="427.5" y="810" width="40" height="20" as="geometry" />
        </mxCell>
        <mxCell id="iE0uYkGe0EGQWXsVg_w--62" value="" style="endArrow=none;html=1;entryX=0.542;entryY=0.003;entryDx=0;entryDy=0;exitX=0.5;exitY=1;exitDx=0;exitDy=0;entryPerimeter=0;" parent="1" edge="1">
          <mxGeometry width="50" height="50" relative="1" as="geometry">
            <mxPoint x="442.4000000000001" y="770.0000000000002" as="sourcePoint" />
            <mxPoint x="442.44000000000005" y="790.1800000000001" as="targetPoint" />
          </mxGeometry>
        </mxCell>
        <mxCell id="iE0uYkGe0EGQWXsVg_w--63" value="" style="ellipse;whiteSpace=wrap;html=1;" parent="1" vertex="1">
          <mxGeometry x="437.5" y="790" width="10" height="10" as="geometry" />
        </mxCell>
        <mxCell id="iE0uYkGe0EGQWXsVg_w--65" value="" style="ellipse;whiteSpace=wrap;html=1;" parent="1" vertex="1">
          <mxGeometry x="297.5" y="960" width="10" height="10" as="geometry" />
        </mxCell>
        <mxCell id="iE0uYkGe0EGQWXsVg_w--67" value="" style="ellipse;whiteSpace=wrap;html=1;" parent="1" vertex="1">
          <mxGeometry x="297.5" y="985" width="10" height="10" as="geometry" />
        </mxCell>
        <mxCell id="iE0uYkGe0EGQWXsVg_w--68" value="" style="endArrow=none;html=1;entryX=0;entryY=0.5;entryDx=0;entryDy=0;" parent="1" edge="1">
          <mxGeometry width="50" height="50" relative="1" as="geometry">
            <mxPoint x="307.5" y="990.0999999999999" as="sourcePoint" />
            <mxPoint x="332.00000000000443" y="990" as="targetPoint" />
            <Array as="points">
              <mxPoint x="319.5" y="990.1" />
              <mxPoint x="329.5" y="989.9" />
            </Array>
          </mxGeometry>
        </mxCell>
        <mxCell id="iE0uYkGe0EGQWXsVg_w--69" value="" style="endArrow=none;html=1;entryX=0;entryY=0.5;entryDx=0;entryDy=0;" parent="1" edge="1">
          <mxGeometry width="50" height="50" relative="1" as="geometry">
            <mxPoint x="307.5" y="1015.06" as="sourcePoint" />
            <mxPoint x="332.00000000000443" y="1014.96" as="targetPoint" />
            <Array as="points">
              <mxPoint x="319.5" y="1015.0600000000001" />
              <mxPoint x="329.5" y="1014.86" />
            </Array>
          </mxGeometry>
        </mxCell>
        <mxCell id="iE0uYkGe0EGQWXsVg_w--70" value="" style="ellipse;whiteSpace=wrap;html=1;fillColor=#000000;" parent="1" vertex="1">
          <mxGeometry x="298" y="1010" width="10" height="10" as="geometry" />
        </mxCell>
        <mxCell id="iE0uYkGe0EGQWXsVg_w--71" value="PAGAMENTO" style="rhombus;whiteSpace=wrap;html=1;fillColor=#fff2cc;strokeColor=#d6b656;fontStyle=2" parent="1" vertex="1">
          <mxGeometry x="500" y="460" width="140" height="60" as="geometry" />
        </mxCell>
        <mxCell id="iE0uYkGe0EGQWXsVg_w--72" value="" style="endArrow=none;html=1;entryX=1;entryY=0.5;entryDx=0;entryDy=0;exitX=0;exitY=0.5;exitDx=0;exitDy=0;" parent="1" target="iE0uYkGe0EGQWXsVg_w--71" edge="1">
          <mxGeometry width="50" height="50" relative="1" as="geometry">
            <mxPoint x="690" y="489.66" as="sourcePoint" />
            <mxPoint x="642.5" y="489.66" as="targetPoint" />
          </mxGeometry>
        </mxCell>
        <mxCell id="iE0uYkGe0EGQWXsVg_w--73" value="CARTA DI CREDITO" style="rounded=0;whiteSpace=wrap;html=1;fillColor=#f8cecc;strokeColor=#b85450;fontStyle=1;fontSize=16;" parent="1" vertex="1">
          <mxGeometry x="690" y="460" width="120" height="60" as="geometry" />
        </mxCell>
        <mxCell id="iE0uYkGe0EGQWXsVg_w--77" value="" style="ellipse;whiteSpace=wrap;html=1;" parent="1" vertex="1">
          <mxGeometry x="695" y="540" width="10" height="10" as="geometry" />
        </mxCell>
        <mxCell id="iE0uYkGe0EGQWXsVg_w--78" value="" style="endArrow=none;html=1;entryX=0.957;entryY=0.004;entryDx=0;entryDy=0;entryPerimeter=0;exitX=0.5;exitY=1;exitDx=0;exitDy=0;" parent="1" edge="1">
          <mxGeometry width="50" height="50" relative="1" as="geometry">
            <mxPoint x="699.99" y="520" as="sourcePoint" />
            <mxPoint x="699.8299999999999" y="540.24" as="targetPoint" />
          </mxGeometry>
        </mxCell>
        <mxCell id="iE0uYkGe0EGQWXsVg_w--79" value="" style="ellipse;whiteSpace=wrap;html=1;" parent="1" vertex="1">
          <mxGeometry x="797.5" y="540" width="10" height="10" as="geometry" />
        </mxCell>
        <mxCell id="iE0uYkGe0EGQWXsVg_w--80" value="" style="endArrow=none;html=1;entryX=0.957;entryY=0.004;entryDx=0;entryDy=0;entryPerimeter=0;exitX=0.5;exitY=1;exitDx=0;exitDy=0;" parent="1" edge="1">
          <mxGeometry width="50" height="50" relative="1" as="geometry">
            <mxPoint x="802.4900000000001" y="520" as="sourcePoint" />
            <mxPoint x="802.3299999999999" y="540.24" as="targetPoint" />
          </mxGeometry>
        </mxCell>
        <mxCell id="iE0uYkGe0EGQWXsVg_w--81" value="" style="ellipse;whiteSpace=wrap;html=1;" parent="1" vertex="1">
          <mxGeometry x="745" y="540" width="10" height="10" as="geometry" />
        </mxCell>
        <mxCell id="iE0uYkGe0EGQWXsVg_w--82" value="" style="endArrow=none;html=1;entryX=0.957;entryY=0.004;entryDx=0;entryDy=0;entryPerimeter=0;exitX=0.5;exitY=1;exitDx=0;exitDy=0;" parent="1" edge="1">
          <mxGeometry width="50" height="50" relative="1" as="geometry">
            <mxPoint x="749.9900000000001" y="520" as="sourcePoint" />
            <mxPoint x="749.8299999999999" y="540.24" as="targetPoint" />
          </mxGeometry>
        </mxCell>
        <mxCell id="iE0uYkGe0EGQWXsVg_w--83" value="" style="ellipse;whiteSpace=wrap;html=1;" parent="1" vertex="1">
          <mxGeometry x="830.5" y="491" width="10" height="10" as="geometry" />
        </mxCell>
        <mxCell id="iE0uYkGe0EGQWXsVg_w--84" value="" style="endArrow=none;html=1;" parent="1" edge="1">
          <mxGeometry width="50" height="50" relative="1" as="geometry">
            <mxPoint x="810" y="495.9300000000001" as="sourcePoint" />
            <mxPoint x="831" y="495.93" as="targetPoint" />
            <Array as="points">
              <mxPoint x="817" y="495.93" />
            </Array>
          </mxGeometry>
        </mxCell>
        <mxCell id="iE0uYkGe0EGQWXsVg_w--86" value="" style="endArrow=none;html=1;entryX=1;entryY=0.5;entryDx=0;entryDy=0;exitX=0;exitY=0.5;exitDx=0;exitDy=0;" parent="1" target="iE0uYkGe0EGQWXsVg_w--87" edge="1">
          <mxGeometry width="50" height="50" relative="1" as="geometry">
            <mxPoint x="332.5" y="489.71" as="sourcePoint" />
            <mxPoint x="285" y="489.71" as="targetPoint" />
          </mxGeometry>
        </mxCell>
        <mxCell id="iE0uYkGe0EGQWXsVg_w--87" value="CONSEGNA" style="rhombus;whiteSpace=wrap;html=1;fillColor=#fff2cc;strokeColor=#d6b656;fontStyle=2" parent="1" vertex="1">
          <mxGeometry x="143" y="460" width="140" height="60" as="geometry" />
        </mxCell>
        <mxCell id="iE0uYkGe0EGQWXsVg_w--88" value="" style="endArrow=none;html=1;entryX=1;entryY=0.5;entryDx=0;entryDy=0;exitX=0;exitY=0.5;exitDx=0;exitDy=0;" parent="1" target="iE0uYkGe0EGQWXsVg_w--89" edge="1">
          <mxGeometry width="50" height="50" relative="1" as="geometry">
            <mxPoint x="143" y="489.85000000000014" as="sourcePoint" />
            <mxPoint x="93.50000000000011" y="490.1400000000001" as="targetPoint" />
          </mxGeometry>
        </mxCell>
        <mxCell id="iE0uYkGe0EGQWXsVg_w--89" value="SPEDIZIONE" style="rounded=0;whiteSpace=wrap;html=1;fillColor=#f8cecc;strokeColor=#b85450;fontStyle=1;fontSize=16;" parent="1" vertex="1">
          <mxGeometry x="-30" y="460" width="120" height="60" as="geometry" />
        </mxCell>
        <mxCell id="iE0uYkGe0EGQWXsVg_w--90" value="" style="ellipse;whiteSpace=wrap;html=1;fillColor=#000000;" parent="1" vertex="1">
          <mxGeometry x="52.5" y="430" width="10" height="10" as="geometry" />
        </mxCell>
        <mxCell id="iE0uYkGe0EGQWXsVg_w--91" value="" style="endArrow=none;html=1;" parent="1" edge="1">
          <mxGeometry width="50" height="50" relative="1" as="geometry">
            <mxPoint x="56.809999999999945" y="460" as="sourcePoint" />
            <mxPoint x="57.5" y="440" as="targetPoint" />
          </mxGeometry>
        </mxCell>
        <mxCell id="iE0uYkGe0EGQWXsVg_w--93" value="DATA" style="text;html=1;strokeColor=none;fillColor=none;align=center;verticalAlign=middle;whiteSpace=wrap;rounded=0;" parent="1" vertex="1">
          <mxGeometry x="-46" y="550" width="40" height="15" as="geometry" />
        </mxCell>
        <mxCell id="iE0uYkGe0EGQWXsVg_w--95" value="" style="ellipse;whiteSpace=wrap;html=1;" parent="1" vertex="1">
          <mxGeometry x="-26" y="540" width="10" height="10" as="geometry" />
        </mxCell>
        <mxCell id="iE0uYkGe0EGQWXsVg_w--96" value="" style="endArrow=none;html=1;entryX=0.957;entryY=0.004;entryDx=0;entryDy=0;entryPerimeter=0;exitX=0.5;exitY=1;exitDx=0;exitDy=0;" parent="1" edge="1">
          <mxGeometry width="50" height="50" relative="1" as="geometry">
            <mxPoint x="-21.00999999999999" y="520" as="sourcePoint" />
            <mxPoint x="-21.1700000000003" y="540.2399999999999" as="targetPoint" />
          </mxGeometry>
        </mxCell>
        <mxCell id="iE0uYkGe0EGQWXsVg_w--97" value="" style="ellipse;whiteSpace=wrap;html=1;" parent="1" vertex="1">
          <mxGeometry x="76.5" y="540" width="10" height="10" as="geometry" />
        </mxCell>
        <mxCell id="iE0uYkGe0EGQWXsVg_w--98" value="" style="endArrow=none;html=1;entryX=0.957;entryY=0.004;entryDx=0;entryDy=0;entryPerimeter=0;exitX=0.5;exitY=1;exitDx=0;exitDy=0;" parent="1" edge="1">
          <mxGeometry width="50" height="50" relative="1" as="geometry">
            <mxPoint x="81.49000000000001" y="520" as="sourcePoint" />
            <mxPoint x="81.3299999999997" y="540.2399999999999" as="targetPoint" />
          </mxGeometry>
        </mxCell>
        <mxCell id="iE0uYkGe0EGQWXsVg_w--99" value="" style="ellipse;whiteSpace=wrap;html=1;" parent="1" vertex="1">
          <mxGeometry x="24" y="540" width="10" height="10" as="geometry" />
        </mxCell>
        <mxCell id="iE0uYkGe0EGQWXsVg_w--100" value="" style="endArrow=none;html=1;entryX=0.957;entryY=0.004;entryDx=0;entryDy=0;entryPerimeter=0;exitX=0.5;exitY=1;exitDx=0;exitDy=0;" parent="1" edge="1">
          <mxGeometry width="50" height="50" relative="1" as="geometry">
            <mxPoint x="28.99000000000001" y="520" as="sourcePoint" />
            <mxPoint x="28.8299999999997" y="540.2399999999999" as="targetPoint" />
          </mxGeometry>
        </mxCell>
        <mxCell id="iE0uYkGe0EGQWXsVg_w--101" value="" style="endArrow=none;html=1;entryX=1;entryY=0.5;entryDx=0;entryDy=0;exitX=0;exitY=0.5;exitDx=0;exitDy=0;" parent="1" source="iE0uYkGe0EGQWXsVg_w--108" edge="1">
          <mxGeometry width="50" height="50" relative="1" as="geometry">
            <mxPoint x="492.5" y="739.82" as="sourcePoint" />
            <mxPoint x="450" y="739.82" as="targetPoint" />
          </mxGeometry>
        </mxCell>
        <mxCell id="iE0uYkGe0EGQWXsVg_w--102" value="ID_MAGAZZINO&lt;br&gt;" style="text;html=1;strokeColor=none;fillColor=none;align=center;verticalAlign=middle;whiteSpace=wrap;rounded=0;fontStyle=5" parent="1" vertex="1">
          <mxGeometry x="762.5" y="659.82" width="40" height="20" as="geometry" />
        </mxCell>
        <mxCell id="iE0uYkGe0EGQWXsVg_w--103" value="INDIRIZZO" style="text;html=1;strokeColor=none;fillColor=none;align=center;verticalAlign=middle;whiteSpace=wrap;rounded=0;" parent="1" vertex="1">
          <mxGeometry x="727.5" y="799.82" width="40" height="15" as="geometry" />
        </mxCell>
        <mxCell id="iE0uYkGe0EGQWXsVg_w--104" value="NOME" style="text;html=1;strokeColor=none;fillColor=none;align=center;verticalAlign=middle;whiteSpace=wrap;rounded=0;" parent="1" vertex="1">
          <mxGeometry x="672.5" y="799.82" width="40" height="15" as="geometry" />
        </mxCell>
        <mxCell id="iE0uYkGe0EGQWXsVg_w--108" value="LOCAZIONE" style="rhombus;whiteSpace=wrap;html=1;fillColor=#fff2cc;strokeColor=#d6b656;fontStyle=2" parent="1" vertex="1">
          <mxGeometry x="497.5" y="709.82" width="140" height="60" as="geometry" />
        </mxCell>
        <mxCell id="iE0uYkGe0EGQWXsVg_w--109" value="" style="endArrow=none;html=1;entryX=1;entryY=0.5;entryDx=0;entryDy=0;exitX=0;exitY=0.5;exitDx=0;exitDy=0;" parent="1" target="iE0uYkGe0EGQWXsVg_w--108" edge="1">
          <mxGeometry width="50" height="50" relative="1" as="geometry">
            <mxPoint x="687.5" y="739.48" as="sourcePoint" />
            <mxPoint x="640" y="739.4800000000001" as="targetPoint" />
          </mxGeometry>
        </mxCell>
        <mxCell id="iE0uYkGe0EGQWXsVg_w--110" value="MAGAZZINO" style="rounded=0;whiteSpace=wrap;html=1;fillColor=#f8cecc;strokeColor=#b85450;fontStyle=1;fontSize=16;" parent="1" vertex="1">
          <mxGeometry x="687.5" y="709.82" width="120" height="60" as="geometry" />
        </mxCell>
        <mxCell id="iE0uYkGe0EGQWXsVg_w--111" value="" style="ellipse;whiteSpace=wrap;html=1;" parent="1" vertex="1">
          <mxGeometry x="692.5" y="789.82" width="10" height="10" as="geometry" />
        </mxCell>
        <mxCell id="iE0uYkGe0EGQWXsVg_w--112" value="" style="endArrow=none;html=1;entryX=0.957;entryY=0.004;entryDx=0;entryDy=0;entryPerimeter=0;exitX=0.5;exitY=1;exitDx=0;exitDy=0;" parent="1" edge="1">
          <mxGeometry width="50" height="50" relative="1" as="geometry">
            <mxPoint x="697.49" y="769.82" as="sourcePoint" />
            <mxPoint x="697.3299999999997" y="790.06" as="targetPoint" />
          </mxGeometry>
        </mxCell>
        <mxCell id="iE0uYkGe0EGQWXsVg_w--115" value="" style="ellipse;whiteSpace=wrap;html=1;" parent="1" vertex="1">
          <mxGeometry x="742.5" y="789.82" width="10" height="10" as="geometry" />
        </mxCell>
        <mxCell id="iE0uYkGe0EGQWXsVg_w--116" value="" style="endArrow=none;html=1;entryX=0.957;entryY=0.004;entryDx=0;entryDy=0;entryPerimeter=0;exitX=0.5;exitY=1;exitDx=0;exitDy=0;" parent="1" edge="1">
          <mxGeometry width="50" height="50" relative="1" as="geometry">
            <mxPoint x="747.49" y="769.82" as="sourcePoint" />
            <mxPoint x="747.3299999999997" y="790.06" as="targetPoint" />
          </mxGeometry>
        </mxCell>
        <mxCell id="iE0uYkGe0EGQWXsVg_w--117" value="" style="ellipse;whiteSpace=wrap;html=1;fillColor=#000000;" parent="1" vertex="1">
          <mxGeometry x="777.5" y="679.82" width="10" height="10" as="geometry" />
        </mxCell>
        <mxCell id="iE0uYkGe0EGQWXsVg_w--118" value="" style="endArrow=none;html=1;" parent="1" edge="1">
          <mxGeometry width="50" height="50" relative="1" as="geometry">
            <mxPoint x="781.81" y="709.8200000000002" as="sourcePoint" />
            <mxPoint x="782.5" y="689.8200000000002" as="targetPoint" />
          </mxGeometry>
        </mxCell>
        <mxCell id="iE0uYkGe0EGQWXsVg_w--119" value="" style="ellipse;whiteSpace=wrap;html=1;" parent="1" vertex="1">
          <mxGeometry x="607.5" y="699.8199999999999" width="10" height="10" as="geometry" />
        </mxCell>
        <mxCell id="iE0uYkGe0EGQWXsVg_w--120" value="" style="endArrow=none;html=1;exitX=0.5;exitY=1;exitDx=0;exitDy=0;" parent="1" source="iE0uYkGe0EGQWXsVg_w--119" edge="1">
          <mxGeometry width="50" height="50" relative="1" as="geometry">
            <mxPoint x="612" y="709.8199999999999" as="sourcePoint" />
            <mxPoint x="612" y="730" as="targetPoint" />
          </mxGeometry>
        </mxCell>
        <mxCell id="ldUeA2LiG4ogRDCzcTgJ-1" value="" style="endArrow=none;html=1;entryX=0;entryY=0.5;entryDx=0;entryDy=0;" parent="1" edge="1">
          <mxGeometry width="50" height="50" relative="1" as="geometry">
            <mxPoint x="307.5" y="965.0999999999999" as="sourcePoint" />
            <mxPoint x="332.00000000000455" y="965" as="targetPoint" />
            <Array as="points">
              <mxPoint x="319.5" y="965.1" />
              <mxPoint x="329.5" y="964.9" />
            </Array>
          </mxGeometry>
        </mxCell>
        <mxCell id="qDq7OfXvAPDq6SGb6ejI-17" value="" style="endArrow=none;html=1;entryX=0;entryY=0.5;entryDx=0;entryDy=0;" edge="1" parent="1" source="DYOanXtXaM0NkYIehZ69-55" target="qDq7OfXvAPDq6SGb6ejI-20">
          <mxGeometry width="50" height="50" relative="1" as="geometry">
            <mxPoint x="454" y="250" as="sourcePoint" />
            <mxPoint x="666" y="250" as="targetPoint" />
          </mxGeometry>
        </mxCell>
        <mxCell id="qDq7OfXvAPDq6SGb6ejI-19" value="(1,1)" style="text;html=1;strokeColor=none;fillColor=none;align=center;verticalAlign=middle;whiteSpace=wrap;rounded=0;" vertex="1" parent="1">
          <mxGeometry x="752.5" y="280" width="40" height="20" as="geometry" />
        </mxCell>
        <mxCell id="qDq7OfXvAPDq6SGb6ejI-20" value="POSSESSO" style="rhombus;whiteSpace=wrap;html=1;fillColor=#fff2cc;strokeColor=#d6b656;fontStyle=2" vertex="1" parent="1">
          <mxGeometry x="680" y="220" width="140" height="60" as="geometry" />
        </mxCell>
        <mxCell id="qDq7OfXvAPDq6SGb6ejI-21" value="" style="endArrow=none;html=1;entryX=0.5;entryY=0;entryDx=0;entryDy=0;" edge="1" parent="1" target="iE0uYkGe0EGQWXsVg_w--73">
          <mxGeometry width="50" height="50" relative="1" as="geometry">
            <mxPoint x="750" y="280" as="sourcePoint" />
            <mxPoint x="750" y="455" as="targetPoint" />
          </mxGeometry>
        </mxCell>
        <mxCell id="qDq7OfXvAPDq6SGb6ejI-23" value="(1,N)" style="text;html=1;strokeColor=none;fillColor=none;align=center;verticalAlign=middle;whiteSpace=wrap;rounded=0;" vertex="1" parent="1">
          <mxGeometry x="635" y="227" width="40" height="20" as="geometry" />
        </mxCell>
        <mxCell id="qDq7OfXvAPDq6SGb6ejI-24" value="" style="ellipse;whiteSpace=wrap;html=1;fillColor=#000000;" vertex="1" parent="1">
          <mxGeometry x="815.5" y="523" width="10.5" height="10" as="geometry" />
        </mxCell>
        <mxCell id="qDq7OfXvAPDq6SGb6ejI-25" value="" style="endArrow=none;html=1;" edge="1" parent="1">
          <mxGeometry width="50" height="50" relative="1" as="geometry">
            <mxPoint x="679" y="528" as="sourcePoint" />
            <mxPoint x="816" y="527.9300000000001" as="targetPoint" />
            <Array as="points">
              <mxPoint x="802" y="527.9300000000001" />
            </Array>
          </mxGeometry>
        </mxCell>
        <mxCell id="qDq7OfXvAPDq6SGb6ejI-27" value="" style="ellipse;whiteSpace=wrap;html=1;" vertex="1" parent="1">
          <mxGeometry x="564" y="540" width="10" height="10" as="geometry" />
        </mxCell>
        <mxCell id="qDq7OfXvAPDq6SGb6ejI-28" value="DATA" style="text;html=1;strokeColor=none;fillColor=none;align=center;verticalAlign=middle;whiteSpace=wrap;rounded=0;" vertex="1" parent="1">
          <mxGeometry x="577.5" y="540" width="40" height="20" as="geometry" />
        </mxCell>
        <mxCell id="qDq7OfXvAPDq6SGb6ejI-29" value="" style="endArrow=none;html=1;entryX=0.957;entryY=0.004;entryDx=0;entryDy=0;entryPerimeter=0;exitX=0.5;exitY=1;exitDx=0;exitDy=0;" edge="1" parent="1">
          <mxGeometry width="50" height="50" relative="1" as="geometry">
            <mxPoint x="568.9899999999998" y="520" as="sourcePoint" />
            <mxPoint x="568.8299999999999" y="540.24" as="targetPoint" />
          </mxGeometry>
        </mxCell>
        <mxCell id="qDq7OfXvAPDq6SGb6ejI-33" value="IMPORTO" style="text;html=1;strokeColor=none;fillColor=none;align=center;verticalAlign=middle;whiteSpace=wrap;rounded=0;" vertex="1" parent="1">
          <mxGeometry x="580" y="410" width="40" height="20" as="geometry" />
        </mxCell>
        <mxCell id="qDq7OfXvAPDq6SGb6ejI-34" value="" style="ellipse;whiteSpace=wrap;html=1;dashed=1;" vertex="1" parent="1">
          <mxGeometry x="565" y="430" width="10" height="10" as="geometry" />
        </mxCell>
        <mxCell id="qDq7OfXvAPDq6SGb6ejI-35" value="" style="endArrow=none;html=1;entryX=0.957;entryY=0.004;entryDx=0;entryDy=0;entryPerimeter=0;exitX=0.5;exitY=1;exitDx=0;exitDy=0;" edge="1" parent="1">
          <mxGeometry width="50" height="50" relative="1" as="geometry">
            <mxPoint x="569.9599999999997" y="439.76" as="sourcePoint" />
            <mxPoint x="569.7999999999998" y="460" as="targetPoint" />
          </mxGeometry>
        </mxCell>
        <mxCell id="qDq7OfXvAPDq6SGb6ejI-38" value="CIRCUITO&lt;br&gt;" style="text;html=1;align=center;verticalAlign=middle;whiteSpace=wrap;rounded=0;fontStyle=0" vertex="1" parent="1">
          <mxGeometry x="855" y="460" width="40" height="20" as="geometry" />
        </mxCell>
        <mxCell id="qDq7OfXvAPDq6SGb6ejI-39" value="" style="ellipse;whiteSpace=wrap;html=1;" vertex="1" parent="1">
          <mxGeometry x="830" y="465" width="10" height="10" as="geometry" />
        </mxCell>
        <mxCell id="qDq7OfXvAPDq6SGb6ejI-40" value="" style="endArrow=none;html=1;" edge="1" parent="1">
          <mxGeometry width="50" height="50" relative="1" as="geometry">
            <mxPoint x="809.5000000000002" y="469.9300000000002" as="sourcePoint" />
            <mxPoint x="830.5" y="469.9300000000002" as="targetPoint" />
            <Array as="points">
              <mxPoint x="816.5" y="469.93" />
            </Array>
          </mxGeometry>
        </mxCell>
        <mxCell id="qDq7OfXvAPDq6SGb6ejI-42" value="TELEFONO" style="text;html=1;strokeColor=none;fillColor=none;align=center;verticalAlign=middle;whiteSpace=wrap;rounded=0;" vertex="1" parent="1">
          <mxGeometry x="434.5" y="308" width="40" height="20" as="geometry" />
        </mxCell>
        <mxCell id="qDq7OfXvAPDq6SGb6ejI-43" value="" style="endArrow=none;html=1;entryX=0.542;entryY=0.003;entryDx=0;entryDy=0;exitX=0.5;exitY=1;exitDx=0;exitDy=0;entryPerimeter=0;" edge="1" parent="1">
          <mxGeometry width="50" height="50" relative="1" as="geometry">
            <mxPoint x="427.4000000000001" y="280.0000000000002" as="sourcePoint" />
            <mxPoint x="427.44000000000005" y="300.18000000000006" as="targetPoint" />
          </mxGeometry>
        </mxCell>
        <mxCell id="qDq7OfXvAPDq6SGb6ejI-44" value="" style="ellipse;whiteSpace=wrap;html=1;" vertex="1" parent="1">
          <mxGeometry x="422.5" y="300" width="10" height="10" as="geometry" />
        </mxCell>
        <mxCell id="qDq7OfXvAPDq6SGb6ejI-45" value="" style="ellipse;whiteSpace=wrap;html=1;" vertex="1" parent="1">
          <mxGeometry x="349" y="540" width="10" height="10" as="geometry" />
        </mxCell>
        <mxCell id="qDq7OfXvAPDq6SGb6ejI-46" value="IVA" style="text;html=1;strokeColor=none;fillColor=none;align=center;verticalAlign=middle;whiteSpace=wrap;rounded=0;" vertex="1" parent="1">
          <mxGeometry x="315" y="540" width="40" height="20" as="geometry" />
        </mxCell>
        <mxCell id="qDq7OfXvAPDq6SGb6ejI-47" value="" style="endArrow=none;html=1;entryX=0.957;entryY=0.004;entryDx=0;entryDy=0;entryPerimeter=0;exitX=0.5;exitY=1;exitDx=0;exitDy=0;" edge="1" parent="1">
          <mxGeometry width="50" height="50" relative="1" as="geometry">
            <mxPoint x="353.9899999999998" y="520" as="sourcePoint" />
            <mxPoint x="353.8299999999999" y="540.24" as="targetPoint" />
          </mxGeometry>
        </mxCell>
      </root>
    </mxGraphModel>
  </diagram>
</mxfile>
